{
  "accessors": [
    {
      "bufferView": 2,
      "componentType": 5126,
      "count": 1120,
      "max": [
        1.7914927005767822,
        -0.034009601920843124,
        1.7914927005767822
      ],
      "min": [
        -1.7914927005767822,
        -2.3157007694244385,
        -1.7914927005767822
      ],
      "type": "VEC3"
    },
    {
      "bufferView": 2,
      "byteOffset": 13440,
      "componentType": 5126,
      "count": 1120,
      "max": [
        1.0,
        1.0,
        1.0
      ],
      "min": [
        -1.0,
        -1.0,
        -1.0
      ],
      "type": "VEC3"
    },
    {
      "bufferView": 1,
      "componentType": 5126,
      "count": 1120,
      "max": [
        0.49000003933906555,
        0.49000003933906555
      ],
      "min": [
        0.0,
        0.0
      ],
      "type": "VEC2"
    },
    {
      "bufferView": 0,
      "componentType": 5125,
      "count": 4032,
      "type": "SCALAR"
    },
    {
      "bufferView": 2,
      "byteOffset": 26880,
      "componentType": 5126,
      "count": 448,
      "max": [
        1.7914927005767822,
        -0.06886877119541168,
        1.7914927005767822
      ],
      "min": [
        -1.7914927005767822,
        -2.2998557090759277,
        -1.7914927005767822
      ],
      "type": "VEC3"
    },
    {
      "bufferView": 2,
      "byteOffset": 32256,
      "componentType": 5126,
      "count": 448,
      "max": [
        1.0,
        1.0,
        1.0
      ],
      "min": [
        -1.0,
        -1.0,
        -1.0
      ],
      "type": "VEC3"
    },
    {
      "bufferView": 1,
      "byteOffset": 8960,
      "componentType": 5126,
      "count": 448,
      "max": [
        0.49000000953674316,
        0.49000000953674316
      ],
      "min": [
        0.010000004433095455,
        0.010000004433095455
      ],
      "type": "VEC2"
    },
    {
      "bufferView": 0,
      "byteOffset": 16128,
      "componentType": 5125,
      "count": 1920,
      "type": "SCALAR"
    },
    {
      "bufferView": 2,
      "byteOffset": 37632,
      "componentType": 5126,
      "count": 2160,
      "max": [
        0.8993067145347595,
        -1.0375173091888428,
        0.8993066549301147
      ],
      "min": [
        -0.8993065357208252,
        -1.207576036453247,
        -0.8993068933486938
      ],
      "type": "VEC3"
    },
    {
      "bufferView": 2,
      "byteOffset": 63552,
      "componentType": 5126,
      "count": 2160,
      "max": [
        0.9924119114875793,
        0.14777708053588867,
        0.9924119114875793
      ],
      "min": [
        -0.9924119114875793,
        0.12289872020483017,
        -0.9924119114875793
      ],
      "type": "VEC3"
    },
    {
      "bufferView": 1,
      "byteOffset": 12544,
      "componentType": 5126,
      "count": 2160,
      "max": [
        1.0,
        1.0
      ],
      "min": [
        0.0,
        0.0
      ],
      "type": "VEC2"
    },
    {
      "bufferView": 0,
      "byteOffset": 23808,
      "componentType": 5125,
      "count": 5400,
      "type": "SCALAR"
    },
    {
      "bufferView": 2,
      "byteOffset": 89472,
      "componentType": 5126,
      "count": 256,
      "max": [
        1.0367803573608398,
        6.988112449645996,
        1.0367804765701294
      ],
      "min": [
        -1.0367803573608398,
        2.999614953994751,
        -1.0367804765701294
      ],
      "type": "VEC3"
    },
    {
      "bufferView": 2,
      "byteOffset": 92544,
      "componentType": 5126,
      "count": 256,
      "max": [
        1.0,
        0.2758527994155884,
        1.0
      ],
      "min": [
        -1.0,
        -0.639620840549469,
        -1.0
      ],
      "type": "VEC3"
    },
    {
      "bufferView": 1,
      "byteOffset": 29824,
      "componentType": 5126,
      "count": 256,
      "max": [
        0.0,
        0.0
      ],
      "min": [
        0.0,
        0.0
      ],
      "type": "VEC2"
    },
    {
      "bufferView": 0,
      "byteOffset": 45408,
      "componentType": 5125,
      "count": 1152,
      "type": "SCALAR"
    },
    {
      "bufferView": 2,
      "byteOffset": 95616,
      "componentType": 5126,
      "count": 160,
      "max": [
        1.1800345182418823,
        4.352747440338135,
        1.1800346374511719
      ],
      "min": [
        -1.1800345182418823,
        2.5075438022613525,
        -1.1800346374511719
      ],
      "type": "VEC3"
    },
    {
      "bufferView": 2,
      "byteOffset": 97536,
      "componentType": 5126,
      "count": 160,
      "max": [
        1.0,
        0.21269038319587708,
        1.0
      ],
      "min": [
        -1.0,
        -0.13199365139007568,
        -1.0
      ],
      "type": "VEC3"
    },
    {
      "bufferView": 1,
      "byteOffset": 31872,
      "componentType": 5126,
      "count": 160,
      "max": [
        0.0,
        0.0
      ],
      "min": [
        0.0,
        0.0
      ],
      "type": "VEC2"
    },
    {
      "bufferView": 0,
      "byteOffset": 50016,
      "componentType": 5125,
      "count": 768,
      "type": "SCALAR"
    },
    {
      "bufferView": 2,
      "byteOffset": 99456,
      "componentType": 5126,
      "count": 23332,
      "max": [
        1.6039204597473145,
        2.702840805053711,
        1.6039202213287354
      ],
      "min": [
        -1.6039201021194458,
        -1.9682272672653198,
        -1.603920578956604
      ],
      "type": "VEC3"
    },
    {
      "bufferView": 2,
      "byteOffset": 379440,
      "componentType": 5126,
      "count": 23332,
      "max": [
        1.0,
        1.0,
        1.0
      ],
      "min": [
        -1.0,
        -1.0,
        -1.0
      ],
      "type": "VEC3"
    },
    {
      "bufferView": 1,
      "byteOffset": 33152,
      "componentType": 5126,
      "count": 23332,
      "max": [
        0.0,
        0.0
      ],
      "min": [
        0.0,
        0.0
      ],
      "type": "VEC2"
    },
    {
      "bufferView": 0,
      "byteOffset": 53088,
      "componentType": 5125,
      "count": 45456,
      "type": "SCALAR"
    },
    {
      "bufferView": 2,
      "byteOffset": 659424,
      "componentType": 5126,
      "count": 1890,
      "max": [
        1.6204009056091309,
        0.07857020944356918,
        1.6204007863998413
      ],
      "min": [
        -1.6204005479812622,
        -2.5827248096466064,
        -1.6204010248184204
      ],
      "type": "VEC3"
    },
    {
      "bufferView": 2,
      "byteOffset": 682104,
      "componentType": 5126,
      "count": 1890,
      "max": [
        0.998375415802002,
        0.3367484211921692,
        0.998375415802002
      ],
      "min": [
        -0.998375415802002,
        -1.0,
        -0.998375415802002
      ],
      "type": "VEC3"
    },
    {
      "bufferView": 1,
      "byteOffset": 219808,
      "componentType": 5126,
      "count": 1890,
      "max": [
        0.0,
        0.0
      ],
      "min": [
        0.0,
        0.0
      ],
      "type": "VEC2"
    },
    {
      "bufferView": 0,
      "byteOffset": 234912,
      "componentType": 5125,
      "count": 5466,
      "type": "SCALAR"
    },
    {
      "bufferView": 2,
      "byteOffset": 704784,
      "componentType": 5126,
      "count": 1696,
      "max": [
        1.0197055339813232,
        3.0733468532562256,
        1.0197054147720337
      ],
      "min": [
        -1.0197055339813232,
        -1.3119364976882935,
        -1.0197055339813232
      ],
      "type": "VEC3"
    },
    {
      "bufferView": 2,
      "byteOffset": 725136,
      "componentType": 5126,
      "count": 1696,
      "max": [
        1.0,
        0.6104808449745178,
        1.0
      ],
      "min": [
        -1.0,
        -1.0,
        -1.0
      ],
      "type": "VEC3"
    },
    {
      "bufferView": 1,
      "byteOffset": 234928,
      "componentType": 5126,
      "count": 1696,
      "max": [
        0.0,
        0.0
      ],
      "min": [
        0.0,
        0.0
      ],
      "type": "VEC2"
    },
    {
      "bufferView": 0,
      "byteOffset": 256776,
      "componentType": 5125,
      "count": 9216,
      "type": "SCALAR"
    },
    {
      "bufferView": 2,
      "byteOffset": 745488,
      "componentType": 5126,
      "count": 5256,
      "max": [
        1.7246233224868774,
        -0.08487635850906372,
        1.7246233224868774
      ],
      "min": [
        -1.7246233224868774,
        -0.5192166566848755,
        -1.7246233224868774
      ],
      "type": "VEC3"
    },
    {
      "bufferView": 2,
      "byteOffset": 808560,
      "componentType": 5126,
      "count": 5256,
      "max": [
        1.0,
        1.0,
        1.0
      ],
      "min": [
        -1.0,
        -1.0,
        -1.0
      ],
      "type": "VEC3"
    },
    {
      "bufferView": 1,
      "byteOffset": 248496,
      "componentType": 5126,
      "count": 5256,
      "max": [
        0.875,
        1.0
      ],
      "min": [
        0.125,
        0.0
      ],
      "type": "VEC2"
    },
    {
      "bufferView": 0,
      "byteOffset": 293640,
      "componentType": 5125,
      "count": 7920,
      "type": "SCALAR"
    },
    {
      "bufferView": 2,
      "byteOffset": 871632,
      "componentType": 5126,
      "count": 160,
      "max": [
        2.060638189315796,
        -2.8053085803985596,
        2.060638427734375
      ],
      "min": [
        -2.060638189315796,
        -3.2667880058288574,
        -2.060637950897217
      ],
      "type": "VEC3"
    },
    {
      "bufferView": 2,
      "byteOffset": 873552,
      "componentType": 5126,
      "count": 160,
      "max": [
        1.0,
        0.9646248817443848,
        1.0
      ],
      "min": [
        -1.0,
        0.0,
        -1.0
      ],
      "type": "VEC3"
    },
    {
      "bufferView": 1,
      "byteOffset": 290544,
      "componentType": 5126,
      "count": 160,
      "max": [
        0.0,
        0.0
      ],
      "min": [
        0.0,
        0.0
      ],
      "type": "VEC2"
    },
    {
      "bufferView": 0,
      "byteOffset": 325320,
      "componentType": 5125,
      "count": 768,
      "type": "SCALAR"
    },
    {
      "bufferView": 2,
      "byteOffset": 875472,
      "componentType": 5126,
      "count": 864,
      "max": [
        2.245670795440674,
        3.60209059715271,
        2.245671033859253
      ],
      "min": [
        -2.245670795440674,
        -2.8078057765960693,
        -2.2456700801849365
      ],
      "type": "VEC3"
    },
    {
      "bufferView": 2,
      "byteOffset": 885840,
      "componentType": 5126,
      "count": 864,
      "max": [
        1.0,
        0.37645819783210754,
        1.0
      ],
      "min": [
        -1.0,
        -0.18549731373786926,
        -1.0
      ],
      "type": "VEC3"
    },
    {
      "bufferView": 1,
      "byteOffset": 291824,
      "componentType": 5126,
      "count": 864,
      "max": [
        0.0,
        0.0
      ],
      "min": [
        0.0,
        0.0
      ],
      "type": "VEC2"
    },
    {
      "bufferView": 0,
      "byteOffset": 328392,
      "componentType": 5125,
      "count": 4128,
      "type": "SCALAR"
    },
    {
      "bufferView": 3,
      "componentType": 5126,
      "count": 94,
      "max": [
        1.9583333730697632
      ],
      "min": [
        0.0
      ],
      "type": "SCALAR"
    },
    {
      "bufferView": 4,
      "componentType": 5126,
      "count": 94,
      "max": [
        0.4826379716396332,
        0.7071068286895752,
        0.4896514415740967,
        0.7071067094802856
      ],
      "min": [
        -0.7071068286895752,
        -0.48965153098106384,
        -0.7071067094802856,
        -0.4826379120349884
      ],
      "type": "VEC4"
    },
    {
      "bufferView": 3,
      "byteOffset": 376,
      "componentType": 5126,
      "count": 94,
      "max": [
        1.9583333730697632
      ],
      "min": [
        0.0
      ],
      "type": "SCALAR"
    },
    {
      "bufferView": 4,
      "byteOffset": 1504,
      "componentType": 5126,
      "count": 94,
      "max": [
        0.49157536029815674,
        0.7069646716117859,
        0.48128464818000793,
        0.7071067094802856
      ],
      "min": [
        -0.7071068286895752,
        -0.4812847375869751,
        -0.7069645524024963,
        -0.4915752708911896
      ],
      "type": "VEC4"
    }
  ],
  "animations": [
    {
      "channels": [
        {
          "sampler": 0,
          "target": {
            "node": 12,
            "path": "rotation"
          }
        }
      ],
      "name": "Loop1",
      "samplers": [
        {
          "input": 44,
          "interpolation": "LINEAR",
          "output": 45
        }
      ]
    },
    {
      "channels": [
        {
          "sampler": 0,
          "target": {
            "node": 12,
            "path": "rotation"
          }
        }
      ],
      "name": "Loop2",
      "samplers": [
        {
          "input": 46,
          "interpolation": "LINEAR",
          "output": 47
        }
      ]
    }
  ],
  "asset": {
    "extras": {
      "author": "Víctor Hernández (https://sketchfab.com/victorhugohc)",
      "license": "CC-BY-4.0 (http://creativecommons.org/licenses/by/4.0/)",
      "source": "https://sketchfab.com/3d-models/airplane-engine-37f83f2bb4a9431a94201c64f12496ab",
      "title": "Airplane engine"
    },
    "generator": "Sketchfab-12.67.0",
    "version": "2.0"
  },
  "bufferViews": [
    {
      "buffer": 0,
      "byteLength": 344904,
      "name": "floatBufferViews",
      "target": 34963
    },
    {
      "buffer": 0,
      "byteLength": 298736,
      "byteOffset": 344904,
      "byteStride": 8,
      "name": "floatBufferViews",
      "target": 34962
    },
    {
      "buffer": 0,
      "byteLength": 896208,
      "byteOffset": 643640,
      "byteStride": 12,
      "name": "floatBufferViews",
      "target": 34962
    },
    {
      "buffer": 0,
      "byteLength": 752,
      "byteOffset": 1539848,
      "name": "floatBufferViews"
    },
    {
      "buffer": 0,
      "byteLength": 3008,
      "byteOffset": 1540600,
      "byteStride": 16,
      "name": "floatBufferViews"
    }
  ],
  "buffers": [
    {
      "byteLength": 1543608,
      "uri": "scene.bin"
    }
  ],
  "extensionsRequired": [
    "KHR_materials_pbrSpecularGlossiness"
  ],
  "extensionsUsed": [
    "KHR_materials_pbrSpecularGlossiness"
  ],
  "materials": [
    {
      "doubleSided": true,
      "extensions": {
        "KHR_materials_pbrSpecularGlossiness": {
          "diffuseFactor": [
            1.0,
            1.0,
            1.0,
            1.0
          ],
          "glossinessFactor": 0.4,
          "specularFactor": [
            0.05,
            0.05,
            0.05
          ]
        }
      },
      "name": "Cylinder.002__0"
    },
    {
      "doubleSided": true,
      "extensions": {
        "KHR_materials_pbrSpecularGlossiness": {
          "diffuseFactor": [
            0.8,
            0.8,
            0.8,
            1.0
          ],
          "glossinessFactor": 1.0,
          "specularFactor": [
            0.37231364508384757,
            0.37231364508384757,
            0.37231364508384757
          ]
        }
      },
      "name": "Material.001"
    },
    {
      "doubleSided": true,
      "extensions": {
        "KHR_materials_pbrSpecularGlossiness": {
          "diffuseFactor": [
            0.0173872,
            0.0173872,
            0.0173872,
            1.0
          ],
          "glossinessFactor": 0.7557865706779262,
          "specularFactor": [
            0.06797005334251531,
            0.06797005334251531,
            0.06797005334251531
          ]
        }
      },
      "name": "Material.002"
    },
    {
      "doubleSided": true,
      "extensions": {
        "KHR_materials_pbrSpecularGlossiness": {
          "diffuseFactor": [
            0.03480843987497129,
            0.03480843987497129,
            0.03480843987497129,
            1.0
          ],
          "glossinessFactor": 0.5,
          "specularFactor": [
            0.1,
            0.1,
            0.1
          ]
        }
      },
      "name": "Material.004"
    },
    {
      "alphaMode": "BLEND",
      "doubleSided": true,
      "extensions": {
        "KHR_materials_pbrSpecularGlossiness": {
          "diffuseFactor": [
            0.8,
            0.8,
            0.8,
            0.3
          ],
          "glossinessFactor": 1.0,
          "specularFactor": [
            1.0,
            1.0,
            1.0
          ]
        }
      },
      "name": "Material.003"
    }
  ],
  "meshes": [
    {
      "name": "Cylinder.001_Material.001_0",
      "primitives": [
        {
          "attributes": {
            "NORMAL": 1,
            "POSITION": 0,
            "TEXCOORD_0": 2
          },
          "indices": 3,
          "material": 1,
          "mode": 4
        }
      ]
    },
    {
      "name": "Cylinder.001_Material.002_0",
      "primitives": [
        {
          "attributes": {
            "NORMAL": 5,
            "POSITION": 4,
            "TEXCOORD_0": 6
          },
          "indices": 7,
          "material": 2,
          "mode": 4
        }
      ]
    },
    {
      "name": "Cylinder.002__0",
      "primitives": [
        {
          "attributes": {
            "NORMAL": 9,
            "POSITION": 8,
            "TEXCOORD_0": 10
          },
          "indices": 11,
          "material": 0,
          "mode": 4
        }
      ]
    },
    {
      "name": "Cylinder.003_Material.002_0",
      "primitives": [
        {
          "attributes": {
            "NORMAL": 13,
            "POSITION": 12,
            "TEXCOORD_0": 14
          },
          "indices": 15,
          "material": 2,
          "mode": 4
        }
      ]
    },
    {
      "name": "Cylinder.003_Material.004_0",
      "primitives": [
        {
          "attributes": {
            "NORMAL": 17,
            "POSITION": 16,
            "TEXCOORD_0": 18
          },
          "indices": 19,
          "material": 3,
          "mode": 4
        }
      ]
    },
    {
      "name": "Cylinder.004_Material.001_0",
      "primitives": [
        {
          "attributes": {
            "NORMAL": 21,
            "POSITION": 20,
            "TEXCOORD_0": 22
          },
          "indices": 23,
          "material": 1,
          "mode": 4
        }
      ]
    },
    {
      "name": "Cylinder.004_Material.002_0",
      "primitives": [
        {
          "attributes": {
            "NORMAL": 25,
            "POSITION": 24,
            "TEXCOORD_0": 26
          },
          "indices": 27,
          "material": 2,
          "mode": 4
        }
      ]
    },
    {
      "name": "Cylinder.005_Material.001_0",
      "primitives": [
        {
          "attributes": {
            "NORMAL": 29,
            "POSITION": 28,
            "TEXCOORD_0": 30
          },
          "indices": 31,
          "material": 1,
          "mode": 4
        }
      ]
    },
    {
      "name": "Cylinder.006_Material.002_0",
      "primitives": [
        {
          "attributes": {
            "NORMAL": 33,
            "POSITION": 32,
            "TEXCOORD_0": 34
          },
          "indices": 35,
          "material": 2,
          "mode": 4
        }
      ]
    },
    {
      "name": "Cylinder.007_Material.004_0",
      "primitives": [
        {
          "attributes": {
            "NORMAL": 37,
            "POSITION": 36,
            "TEXCOORD_0": 38
          },
          "indices": 39,
          "material": 3,
          "mode": 4
        }
      ]
    },
    {
      "name": "Cylinder.007_Material.003_0",
      "primitives": [
        {
          "attributes": {
            "NORMAL": 41,
            "POSITION": 40,
            "TEXCOORD_0": 42
          },
          "indices": 43,
          "material": 4,
          "mode": 4
        }
      ]
    }
  ],
  "nodes": [
    {
      "children": [
        1
      ],
      "matrix": [
        0.00909090880304575,
        0.0,
        0.0,
        0.0,
        0.0,
        2.0185872535817827e-18,
        -0.00909090880304575,
        0.0,
        0.0,
        0.00909090880304575,
        2.0185872535817827e-18,
        0.0,
        0.0,
        0.0,
        0.0,
        1.0
      ],
      "name": "Sketchfab_model"
    },
    {
      "children": [
        2
      ],
      "matrix": [
        1.0,
        0.0,
        0.0,
        0.0,
        0.0,
        0.0,
        1.0,
        0.0,
        0.0,
        -1.0,
        0.0,
        0.0,
        0.0,
        0.0,
        0.0,
        1.0
      ],
      "name": "3c63b6bf6ae742228dea7c857ed1d518.fbx"
    },
    {
      "children": [
        3
      ],
      "name": "Object_2"
    },
    {
      "children": [
        4,
        7,
        9,
        12,
        15,
        17,
        19
      ],
      "name": "RootNode"
    },
    {
      "children": [
        5,
        6
      ],
      "name": "Cylinder.001",
      "rotation": [
        -0.7071068286895752,
        0.0,
        0.0,
        0.7071067094802856
      ],
      "scale": [
        100.0,
        100.0,
        100.0
      ]
    },
    {
      "mesh": 0,
      "name": "Cylinder.001_Material.001_0"
    },
    {
      "mesh": 1,
      "name": "Cylinder.001_Material.002_0"
    },
    {
      "children": [
        8
      ],
      "name": "Cylinder.002",
      "rotation": [
        -0.7071068286895752,
        0.0,
        0.0,
        0.7071067094802856
      ],
      "scale": [
        100.0,
        100.0,
        100.0
      ]
    },
    {
      "mesh": 2,
      "name": "Cylinder.002__0"
    },
    {
      "children": [
        10,
        11
      ],
      "name": "Cylinder.003",
      "rotation": [
        -0.7071068286895752,
        0.0,
        0.0,
        0.7071067094802856
      ],
      "scale": [
        100.0,
        100.0,
        100.0
      ]
    },
    {
      "mesh": 3,
      "name": "Cylinder.003_Material.002_0"
    },
    {
      "mesh": 4,
      "name": "Cylinder.003_Material.004_0"
    },
    {
      "children": [
        13,
        14
      ],
      "name": "Cylinder.004",
      "rotation": [
        -0.7071068286895752,
        0.0,
        0.0,
        0.7071067094802856
      ],
      "scale": [
        100.0,
        100.0,
        100.0
      ]
    },
    {
      "mesh": 5,
      "name": "Cylinder.004_Material.001_0"
    },
    {
      "mesh": 6,
      "name": "Cylinder.004_Material.002_0"
    },
    {
      "children": [
        16
      ],
      "name": "Cylinder.005",
      "rotation": [
        -0.7071068286895752,
        0.0,
        0.0,
        0.7071067094802856
      ],
      "scale": [
        100.0,
        100.0,
        100.0
      ]
    },
    {
      "mesh": 7,
      "name": "Cylinder.005_Material.001_0"
    },
    {
      "children": [
        18
      ],
      "name": "Cylinder.006",
      "rotation": [
        -0.7071068286895752,
        0.0,
        0.0,
        0.7071067094802856
      ],
      "scale": [
        100.0,
        100.0,
        100.0
      ]
    },
    {
      "mesh": 8,
      "name": "Cylinder.006_Material.002_0"
    },
    {
      "children": [
        20,
        21
      ],
      "name": "Cylinder.007",
      "rotation": [
        -0.7071068286895752,
        0.0,
        0.0,
        0.7071067094802856
      ],
      "scale": [
        100.0,
        100.0,
        100.0
      ]
    },
    {
      "mesh": 9,
      "name": "Cylinder.007_Material.004_0"
    },
    {
      "mesh": 10,
      "name": "Cylinder.007_Material.003_0"
    }
  ],
  "scene": 0,
  "scenes": [
    {
      "name": "Sketchfab_Scene",
      "nodes": [
        0
      ]
    }
  ]
}
