{
	"asset":{
		"generator":"Khronos glTF Blender I/O v4.1.63",
		"version":"2.0"
	},
	"scene":0,
	"scenes":[
		{
			"name":"Scene",
			"nodes":[
				5
			]
		}
	],
	"nodes":[
		{
			"mesh":0,
			"name":"Object_10"
		},
		{
			"mesh":1,
			"name":"Object_12"
		},
		{
			"mesh":2,
			"name":"Object_5"
		},
		{
			"mesh":3,
			"name":"Object_7"
		},
		{
			"children":[
				0,
				1,
				2,
				3
			],
			"name":"A380.obj.cleaner.materialmerger.gles"
		},
		{
			"children":[
				4
			],
			"name":"Sketchfab_model",
			"rotation":[
				-0.70710688829422,
				0,
				0,
				0.7071066498756409
			],
			"scale":[
				0.3175413906574249,
				0.3175414204597473,
				0.3175414204597473
			]
		}
	],
	"materials":[
		{
			"doubleSided":true,
			"name":"A380A380misciSG1",
			"pbrMetallicRoughness":{
				"baseColorTexture":{
					"index":0
				},
				"metallicFactor":0
			}
		},
		{
			"doubleSided":true,
			"name":"A380A380misciiSG1",
			"pbrMetallicRoughness":{
				"baseColorTexture":{
					"index":1
				},
				"metallicFactor":0
			}
		},
		{
			"doubleSided":true,
			"name":"A380A380cockpitSG5",
			"pbrMetallicRoughness":{
				"baseColorTexture":{
					"index":2
				},
				"metallicFactor":0
			}
		},
		{
			"doubleSided":true,
			"name":"A380A380interiorSG3",
			"pbrMetallicRoughness":{
				"baseColorTexture":{
					"index":3
				},
				"metallicFactor":0
			}
		}
	],
	"meshes":[
		{
			"name":"Object_8.001",
			"primitives":[
				{
					"attributes":{
						"POSITION":0,
						"NORMAL":1,
						"TEXCOORD_0":2
					},
					"indices":3,
					"material":0
				}
			]
		},
		{
			"name":"Object_10.001",
			"primitives":[
				{
					"attributes":{
						"POSITION":4,
						"NORMAL":5,
						"TEXCOORD_0":6
					},
					"indices":7,
					"material":1
				}
			]
		},
		{
			"name":"Object_3.001",
			"primitives":[
				{
					"attributes":{
						"POSITION":8,
						"NORMAL":9,
						"TEXCOORD_0":10
					},
					"indices":11,
					"material":2
				}
			]
		},
		{
			"name":"Object_5.001",
			"primitives":[
				{
					"attributes":{
						"POSITION":12,
						"NORMAL":13,
						"TEXCOORD_0":14
					},
					"indices":15,
					"material":3
				}
			]
		}
	],
	"textures":[
		{
			"sampler":0,
			"source":0
		},
		{
			"sampler":0,
			"source":1
		},
		{
			"sampler":0,
			"source":2
		},
		{
			"sampler":0,
			"source":3
		}
	],
	"images":[
		{
			"mimeType":"image/png",
			"name":"A380A380misciSG1_baseColor",
			"uri":"A380A380misciSG1_baseColor.png"
		},
		{
			"mimeType":"image/png",
			"name":"A380A380misciiSG1_baseColor",
			"uri":"A380A380misciiSG1_baseColor.png"
		},
		{
			"mimeType":"image/png",
			"name":"A380A380cockpitSG5_baseColor",
			"uri":"A380A380cockpitSG5_baseColor.png"
		},
		{
			"mimeType":"image/png",
			"name":"A380A380interiorSG3_baseColor",
			"uri":"A380A380interiorSG3_baseColor.png"
		}
	],
	"accessors":[
		{
			"bufferView":0,
			"componentType":5126,
			"count":46522,
			"max":[
				3.2630999088287354,
				24.345199584960938,
				7.473239898681641
			],
			"min":[
				-2.974829912185669,
				-19.864500045776367,
				4.675559997558594
			],
			"type":"VEC3"
		},
		{
			"bufferView":1,
			"componentType":5126,
			"count":46522,
			"type":"VEC3"
		},
		{
			"bufferView":2,
			"componentType":5126,
			"count":46522,
			"type":"VEC2"
		},
		{
			"bufferView":3,
			"componentType":5123,
			"count":56361,
			"type":"SCALAR"
		},
		{
			"bufferView":4,
			"componentType":5126,
			"count":32512,
			"max":[
				3.302380084991455,
				24.15489959716797,
				7.605820178985596
			],
			"min":[
				-3.045909881591797,
				-18.765300750732422,
				4.76501989364624
			],
			"type":"VEC3"
		},
		{
			"bufferView":5,
			"componentType":5126,
			"count":32512,
			"type":"VEC3"
		},
		{
			"bufferView":6,
			"componentType":5126,
			"count":32512,
			"type":"VEC2"
		},
		{
			"bufferView":7,
			"componentType":5123,
			"count":37989,
			"type":"SCALAR"
		},
		{
			"bufferView":8,
			"componentType":5126,
			"count":4457,
			"max":[
				0.24033400416374207,
				25.97949981689453,
				7.239500045776367
			],
			"min":[
				-0.9958109855651855,
				25.191099166870117,
				6.230639934539795
			],
			"type":"VEC3"
		},
		{
			"bufferView":9,
			"componentType":5126,
			"count":4457,
			"type":"VEC3"
		},
		{
			"bufferView":10,
			"componentType":5126,
			"count":4457,
			"type":"VEC2"
		},
		{
			"bufferView":11,
			"componentType":5123,
			"count":5487,
			"type":"SCALAR"
		},
		{
			"bufferView":12,
			"componentType":5126,
			"count":24487,
			"max":[
				3.302380084991455,
				24.074399948120117,
				7.730899810791016
			],
			"min":[
				-2.6892199516296387,
				-22.441099166870117,
				4.74399995803833
			],
			"type":"VEC3"
		},
		{
			"bufferView":13,
			"componentType":5126,
			"count":24487,
			"type":"VEC3"
		},
		{
			"bufferView":14,
			"componentType":5126,
			"count":24487,
			"type":"VEC2"
		},
		{
			"bufferView":15,
			"componentType":5123,
			"count":32571,
			"type":"SCALAR"
		}
	],
	"bufferViews":[
		{
			"buffer":0,
			"byteLength":558264,
			"byteOffset":0,
			"target":34962
		},
		{
			"buffer":0,
			"byteLength":558264,
			"byteOffset":558264,
			"target":34962
		},
		{
			"buffer":0,
			"byteLength":372176,
			"byteOffset":1116528,
			"target":34962
		},
		{
			"buffer":0,
			"byteLength":112722,
			"byteOffset":1488704,
			"target":34963
		},
		{
			"buffer":0,
			"byteLength":390144,
			"byteOffset":1601428,
			"target":34962
		},
		{
			"buffer":0,
			"byteLength":390144,
			"byteOffset":1991572,
			"target":34962
		},
		{
			"buffer":0,
			"byteLength":260096,
			"byteOffset":2381716,
			"target":34962
		},
		{
			"buffer":0,
			"byteLength":75978,
			"byteOffset":2641812,
			"target":34963
		},
		{
			"buffer":0,
			"byteLength":53484,
			"byteOffset":2717792,
			"target":34962
		},
		{
			"buffer":0,
			"byteLength":53484,
			"byteOffset":2771276,
			"target":34962
		},
		{
			"buffer":0,
			"byteLength":35656,
			"byteOffset":2824760,
			"target":34962
		},
		{
			"buffer":0,
			"byteLength":10974,
			"byteOffset":2860416,
			"target":34963
		},
		{
			"buffer":0,
			"byteLength":293844,
			"byteOffset":2871392,
			"target":34962
		},
		{
			"buffer":0,
			"byteLength":293844,
			"byteOffset":3165236,
			"target":34962
		},
		{
			"buffer":0,
			"byteLength":195896,
			"byteOffset":3459080,
			"target":34962
		},
		{
			"buffer":0,
			"byteLength":65142,
			"byteOffset":3654976,
			"target":34963
		}
	],
	"samplers":[
		{
			"magFilter":9729,
			"minFilter":9987
		}
	],
	"buffers":[
		{
			"byteLength":3720120,
			"uri":"untitled.bin"
		}
	]
}
