{
	"asset":{
		"generator":"Khronos glTF Blender I/O v4.1.63",
		"version":"2.0"
	},
	"scene":0,
	"scenes":[
		{
			"name":"Scene",
			"nodes":[
				15
			]
		}
	],
	"nodes":[
		{
			"mesh":0,
			"name":"Object_10",
			"translation":[
				0,
				-8.846387572702952e-06,
				-5.1111564971506596e-06
			]
		},
		{
			"mesh":1,
			"name":"Object_11",
			"translation":[
				0,
				-8.846387572702952e-06,
				-5.1111564971506596e-06
			]
		},
		{
			"mesh":2,
			"name":"Object_12",
			"translation":[
				0,
				-8.846387572702952e-06,
				-5.1111564971506596e-06
			]
		},
		{
			"mesh":3,
			"name":"Object_13",
			"translation":[
				0,
				-8.846387572702952e-06,
				-5.1111564971506596e-06
			]
		},
		{
			"mesh":4,
			"name":"Object_14",
			"translation":[
				0,
				-8.846387572702952e-06,
				-5.1111564971506596e-06
			]
		},
		{
			"mesh":5,
			"name":"Object_15",
			"translation":[
				0,
				-8.846387572702952e-06,
				-5.1111564971506596e-06
			]
		},
		{
			"mesh":6,
			"name":"Object_2",
			"translation":[
				0,
				-8.846387572702952e-06,
				-5.1111564971506596e-06
			]
		},
		{
			"mesh":7,
			"name":"Object_3",
			"translation":[
				0,
				-8.846387572702952e-06,
				-5.1111564971506596e-06
			]
		},
		{
			"mesh":8,
			"name":"Object_4",
			"translation":[
				0,
				-8.846387572702952e-06,
				-5.1111564971506596e-06
			]
		},
		{
			"mesh":9,
			"name":"Object_5",
			"translation":[
				0,
				-8.846387572702952e-06,
				-5.1111564971506596e-06
			]
		},
		{
			"mesh":10,
			"name":"Object_6",
			"translation":[
				0,
				-8.846387572702952e-06,
				-5.1111564971506596e-06
			]
		},
		{
			"mesh":11,
			"name":"Object_7",
			"translation":[
				0,
				-8.846387572702952e-06,
				-5.1111564971506596e-06
			]
		},
		{
			"mesh":12,
			"name":"Object_8",
			"translation":[
				0,
				-8.846387572702952e-06,
				-5.1111564971506596e-06
			]
		},
		{
			"mesh":13,
			"name":"Object_9",
			"translation":[
				0,
				-8.846387572702952e-06,
				-5.1111564971506596e-06
			]
		},
		{
			"children":[
				0,
				1,
				2,
				3,
				4,
				5,
				6,
				7,
				8,
				9,
				10,
				11,
				12,
				13
			],
			"name":"8c7d65d9-e2d5-4bd8-929e-c13ba2c6afe0.obj.cleaner.materialmerger",
			"translation":[
				0,
				-8.846387572702952e-06,
				-5.1111564971506596e-06
			]
		},
		{
			"children":[
				14
			],
			"name":"Sketchfab_model",
			"rotation":[
				-0.70710688829422,
				0,
				0,
				0.7071066498756409
			],
			"scale":[
				0.009999999776482582,
				0.010000000707805157,
				0.010000000707805157
			],
			"translation":[
				0.14066076278686523,
				-1.612933874130249,
				2.651759624481201
			]
		}
	],
	"materials":[
		{
			"doubleSided":true,
			"name":"FrontColor",
			"pbrMetallicRoughness":{
				"metallicFactor":0
			}
		},
		{
			"doubleSided":true,
			"name":"Metal_Corrogated_Shiny",
			"pbrMetallicRoughness":{
				"baseColorTexture":{
					"index":0
				},
				"metallicFactor":0
			}
		},
		{
			"doubleSided":true,
			"name":"Metal_Steel_Textured_White",
			"pbrMetallicRoughness":{
				"baseColorTexture":{
					"index":1
				},
				"metallicFactor":0
			}
		},
		{
			"doubleSided":true,
			"name":"LightGray",
			"pbrMetallicRoughness":{
				"baseColorFactor":[
					0.6627449989318848,
					0.6627449989318848,
					0.6627449989318848,
					1
				],
				"metallicFactor":0
			}
		},
		{
			"doubleSided":true,
			"name":"Concrete_Scored_Jointless",
			"pbrMetallicRoughness":{
				"baseColorTexture":{
					"index":2
				},
				"metallicFactor":0
			}
		},
		{
			"alphaMode":"BLEND",
			"doubleSided":true,
			"name":"Translucent_Glass_Green_Dark",
			"pbrMetallicRoughness":{
				"baseColorFactor":[
					0.24313700199127197,
					0.35686299204826355,
					0.01960800029337406,
					0.5
				],
				"metallicFactor":0
			}
		},
		{
			"doubleSided":true,
			"name":"Carpet_Berber_Pattern_Gray",
			"pbrMetallicRoughness":{
				"baseColorTexture":{
					"index":3
				},
				"metallicFactor":0
			}
		},
		{
			"doubleSided":true,
			"name":"Color_000",
			"pbrMetallicRoughness":{
				"metallicFactor":0
			}
		},
		{
			"doubleSided":true,
			"name":"Color_009",
			"pbrMetallicRoughness":{
				"baseColorFactor":[
					0,
					0,
					0,
					1
				],
				"metallicFactor":0
			}
		},
		{
			"doubleSided":true,
			"name":"Color_A01",
			"pbrMetallicRoughness":{
				"baseColorFactor":[
					1,
					0,
					0,
					1
				],
				"metallicFactor":0
			}
		},
		{
			"doubleSided":true,
			"name":"Color_H05",
			"pbrMetallicRoughness":{
				"baseColorFactor":[
					0.800000011920929,
					1,
					1,
					1
				],
				"metallicFactor":0
			}
		},
		{
			"doubleSided":true,
			"name":"Color_I11",
			"pbrMetallicRoughness":{
				"baseColorFactor":[
					0,
					0,
					0.6000000238418579,
					1
				],
				"metallicFactor":0
			}
		}
	],
	"meshes":[
		{
			"name":"Object_8",
			"primitives":[
				{
					"attributes":{
						"POSITION":0,
						"NORMAL":1,
						"TEXCOORD_0":2
					},
					"indices":3,
					"material":0
				}
			]
		},
		{
			"name":"Object_9",
			"primitives":[
				{
					"attributes":{
						"POSITION":4,
						"NORMAL":5,
						"TEXCOORD_0":6
					},
					"indices":7,
					"material":0
				}
			]
		},
		{
			"name":"Object_10",
			"primitives":[
				{
					"attributes":{
						"POSITION":8,
						"NORMAL":9,
						"TEXCOORD_0":10
					},
					"indices":11,
					"material":0
				}
			]
		},
		{
			"name":"Object_11",
			"primitives":[
				{
					"attributes":{
						"POSITION":12,
						"NORMAL":13,
						"TEXCOORD_0":14
					},
					"indices":15,
					"material":1
				}
			]
		},
		{
			"name":"Object_12",
			"primitives":[
				{
					"attributes":{
						"POSITION":16,
						"NORMAL":17,
						"TEXCOORD_0":18
					},
					"indices":19,
					"material":2
				}
			]
		},
		{
			"name":"Object_13",
			"primitives":[
				{
					"attributes":{
						"POSITION":20,
						"NORMAL":21,
						"TEXCOORD_0":22
					},
					"indices":23,
					"material":3
				}
			]
		},
		{
			"name":"Object_0",
			"primitives":[
				{
					"attributes":{
						"POSITION":24,
						"NORMAL":25,
						"TEXCOORD_0":26
					},
					"indices":27,
					"material":4
				}
			]
		},
		{
			"name":"Object_1",
			"primitives":[
				{
					"attributes":{
						"POSITION":28,
						"NORMAL":29,
						"TEXCOORD_0":30
					},
					"indices":31,
					"material":5
				}
			]
		},
		{
			"name":"Object_2",
			"primitives":[
				{
					"attributes":{
						"POSITION":32,
						"NORMAL":33,
						"TEXCOORD_0":34
					},
					"indices":35,
					"material":6
				}
			]
		},
		{
			"name":"Object_3",
			"primitives":[
				{
					"attributes":{
						"POSITION":36,
						"NORMAL":37,
						"TEXCOORD_0":38
					},
					"indices":39,
					"material":7
				}
			]
		},
		{
			"name":"Object_4",
			"primitives":[
				{
					"attributes":{
						"POSITION":40,
						"NORMAL":41,
						"TEXCOORD_0":42
					},
					"indices":43,
					"material":8
				}
			]
		},
		{
			"name":"Object_5",
			"primitives":[
				{
					"attributes":{
						"POSITION":44,
						"NORMAL":45,
						"TEXCOORD_0":46
					},
					"indices":47,
					"material":9
				}
			]
		},
		{
			"name":"Object_6",
			"primitives":[
				{
					"attributes":{
						"POSITION":48,
						"NORMAL":49,
						"TEXCOORD_0":50
					},
					"indices":51,
					"material":10
				}
			]
		},
		{
			"name":"Object_7",
			"primitives":[
				{
					"attributes":{
						"POSITION":52,
						"NORMAL":53,
						"TEXCOORD_0":54
					},
					"indices":55,
					"material":11
				}
			]
		}
	],
	"textures":[
		{
			"sampler":0,
			"source":0
		},
		{
			"sampler":0,
			"source":1
		},
		{
			"sampler":0,
			"source":2
		},
		{
			"sampler":0,
			"source":3
		}
	],
	"images":[
		{
			"mimeType":"image/jpeg",
			"name":"Metal_Corrogated_Shiny_baseColor",
			"uri":"Metal_Corrogated_Shiny_baseColor.jpg"
		},
		{
			"mimeType":"image/jpeg",
			"name":"Metal_Steel_Textured_White_baseColor",
			"uri":"Metal_Steel_Textured_White_baseColor.jpg"
		},
		{
			"mimeType":"image/jpeg",
			"name":"Concrete_Scored_Jointless_baseColor",
			"uri":"Concrete_Scored_Jointless_baseColor.jpg"
		},
		{
			"mimeType":"image/jpeg",
			"name":"Carpet_Berber_Pattern_Gray_baseColor",
			"uri":"Carpet_Berber_Pattern_Gray_baseColor.jpg"
		}
	],
	"accessors":[
		{
			"bufferView":0,
			"componentType":5126,
			"count":10724,
			"max":[
				434.18798828125,
				685.698974609375,
				131.17999267578125
			],
			"min":[
				18.97760009765625,
				313.78900146484375,
				49.53260040283203
			],
			"type":"VEC3"
		},
		{
			"bufferView":1,
			"componentType":5126,
			"count":10724,
			"type":"VEC3"
		},
		{
			"bufferView":2,
			"componentType":5126,
			"count":10724,
			"type":"VEC2"
		},
		{
			"bufferView":3,
			"componentType":5123,
			"count":18096,
			"type":"SCALAR"
		},
		{
			"bufferView":4,
			"componentType":5126,
			"count":11297,
			"max":[
				355.19500732421875,
				538.552001953125,
				131.17999267578125
			],
			"min":[
				18.97760009765625,
				457.4939880371094,
				107.47899627685547
			],
			"type":"VEC3"
		},
		{
			"bufferView":5,
			"componentType":5126,
			"count":11297,
			"type":"VEC3"
		},
		{
			"bufferView":6,
			"componentType":5126,
			"count":11297,
			"type":"VEC2"
		},
		{
			"bufferView":7,
			"componentType":5123,
			"count":19620,
			"type":"SCALAR"
		},
		{
			"bufferView":8,
			"componentType":5126,
			"count":8555,
			"max":[
				977.218017578125,
				994.6380004882812,
				232.77499389648438
			],
			"min":[
				-87.08999633789062,
				4.850339889526367,
				49.35300064086914
			],
			"type":"VEC3"
		},
		{
			"bufferView":9,
			"componentType":5126,
			"count":8555,
			"type":"VEC3"
		},
		{
			"bufferView":10,
			"componentType":5126,
			"count":8555,
			"type":"VEC2"
		},
		{
			"bufferView":11,
			"componentType":5123,
			"count":14475,
			"type":"SCALAR"
		},
		{
			"bufferView":12,
			"componentType":5126,
			"count":662,
			"max":[
				436.5509948730469,
				557.8560180664062,
				130.718994140625
			],
			"min":[
				-83.41079711914062,
				453.1090087890625,
				56.15439987182617
			],
			"type":"VEC3"
		},
		{
			"bufferView":13,
			"componentType":5126,
			"count":662,
			"type":"VEC3"
		},
		{
			"bufferView":14,
			"componentType":5126,
			"count":662,
			"type":"VEC2"
		},
		{
			"bufferView":15,
			"componentType":5123,
			"count":987,
			"type":"SCALAR"
		},
		{
			"bufferView":16,
			"componentType":5126,
			"count":88,
			"max":[
				-71.18450164794922,
				523.35302734375,
				111.69200134277344
			],
			"min":[
				-83.7042007446289,
				477.0539855957031,
				107.47899627685547
			],
			"type":"VEC3"
		},
		{
			"bufferView":17,
			"componentType":5126,
			"count":88,
			"type":"VEC3"
		},
		{
			"bufferView":18,
			"componentType":5126,
			"count":88,
			"type":"VEC2"
		},
		{
			"bufferView":19,
			"componentType":5123,
			"count":168,
			"type":"SCALAR"
		},
		{
			"bufferView":20,
			"componentType":5126,
			"count":672,
			"max":[
				459.6050109863281,
				568.77001953125,
				52.604801177978516
			],
			"min":[
				-22.060199737548828,
				442.19500732421875,
				36.918399810791016
			],
			"type":"VEC3"
		},
		{
			"bufferView":21,
			"componentType":5126,
			"count":672,
			"type":"VEC3"
		},
		{
			"bufferView":22,
			"componentType":5126,
			"count":672,
			"type":"VEC2"
		},
		{
			"bufferView":23,
			"componentType":5123,
			"count":1848,
			"type":"SCALAR"
		},
		{
			"bufferView":24,
			"componentType":5126,
			"count":199,
			"max":[
				770.85302734375,
				546.9390258789062,
				140.15899658203125
			],
			"min":[
				-11.981499671936035,
				452.54901123046875,
				107.47899627685547
			],
			"type":"VEC3"
		},
		{
			"bufferView":25,
			"componentType":5126,
			"count":199,
			"type":"VEC3"
		},
		{
			"bufferView":26,
			"componentType":5126,
			"count":199,
			"type":"VEC2"
		},
		{
			"bufferView":27,
			"componentType":5123,
			"count":462,
			"type":"SCALAR"
		},
		{
			"bufferView":28,
			"componentType":5126,
			"count":2520,
			"max":[
				769.6649780273438,
				546.8579711914062,
				129.4499969482422
			],
			"min":[
				-106.69300079345703,
				452.6300048828125,
				115.58999633789062
			],
			"type":"VEC3"
		},
		{
			"bufferView":29,
			"componentType":5126,
			"count":2520,
			"type":"VEC3"
		},
		{
			"bufferView":30,
			"componentType":5126,
			"count":2520,
			"type":"VEC2"
		},
		{
			"bufferView":31,
			"componentType":5123,
			"count":4020,
			"type":"SCALAR"
		},
		{
			"bufferView":32,
			"componentType":5126,
			"count":723,
			"max":[
				770.85302734375,
				545.9530029296875,
				107.47899627685547
			],
			"min":[
				-128.7519989013672,
				453.5350036621094,
				107.47899627685547
			],
			"type":"VEC3"
		},
		{
			"bufferView":33,
			"componentType":5126,
			"count":723,
			"type":"VEC3"
		},
		{
			"bufferView":34,
			"componentType":5126,
			"count":723,
			"type":"VEC2"
		},
		{
			"bufferView":35,
			"componentType":5123,
			"count":1587,
			"type":"SCALAR"
		},
		{
			"bufferView":36,
			"componentType":5126,
			"count":9958,
			"max":[
				732.4530029296875,
				541.7849731445312,
				134.2899932861328
			],
			"min":[
				37.01319885253906,
				458.25,
				128.5
			],
			"type":"VEC3"
		},
		{
			"bufferView":37,
			"componentType":5126,
			"count":9958,
			"type":"VEC3"
		},
		{
			"bufferView":38,
			"componentType":5126,
			"count":9958,
			"type":"VEC2"
		},
		{
			"bufferView":39,
			"componentType":5123,
			"count":19080,
			"type":"SCALAR"
		},
		{
			"bufferView":40,
			"componentType":5126,
			"count":7328,
			"max":[
				732.3740234375,
				680.4970092773438,
				132.98899841308594
			],
			"min":[
				-80.20030212402344,
				318.9909973144531,
				32.25859832763672
			],
			"type":"VEC3"
		},
		{
			"bufferView":41,
			"componentType":5126,
			"count":7328,
			"type":"VEC3"
		},
		{
			"bufferView":42,
			"componentType":5126,
			"count":7328,
			"type":"VEC2"
		},
		{
			"bufferView":43,
			"componentType":5123,
			"count":13524,
			"type":"SCALAR"
		},
		{
			"bufferView":44,
			"componentType":5126,
			"count":1422,
			"max":[
				922.7930297851562,
				539.3369750976562,
				232.77499389648438
			],
			"min":[
				41.34939956665039,
				460.1510009765625,
				140.23699951171875
			],
			"type":"VEC3"
		},
		{
			"bufferView":45,
			"componentType":5126,
			"count":1422,
			"type":"VEC3"
		},
		{
			"bufferView":46,
			"componentType":5126,
			"count":1422,
			"type":"VEC2"
		},
		{
			"bufferView":47,
			"componentType":5123,
			"count":2214,
			"type":"SCALAR"
		},
		{
			"bufferView":48,
			"componentType":5126,
			"count":9780,
			"max":[
				975.7769775390625,
				689.3569946289062,
				282.7650146484375
			],
			"min":[
				-128.7519989013672,
				310.1310119628906,
				46.338600158691406
			],
			"type":"VEC3"
		},
		{
			"bufferView":49,
			"componentType":5126,
			"count":9780,
			"type":"VEC3"
		},
		{
			"bufferView":50,
			"componentType":5126,
			"count":9780,
			"type":"VEC2"
		},
		{
			"bufferView":51,
			"componentType":5123,
			"count":15771,
			"type":"SCALAR"
		},
		{
			"bufferView":52,
			"componentType":5126,
			"count":9240,
			"max":[
				732.3740234375,
				542.0560302734375,
				134.2899932861328
			],
			"min":[
				23.239599227905273,
				457.4939880371094,
				107.47899627685547
			],
			"type":"VEC3"
		},
		{
			"bufferView":53,
			"componentType":5126,
			"count":9240,
			"type":"VEC3"
		},
		{
			"bufferView":54,
			"componentType":5126,
			"count":9240,
			"type":"VEC2"
		},
		{
			"bufferView":55,
			"componentType":5123,
			"count":16488,
			"type":"SCALAR"
		}
	],
	"bufferViews":[
		{
			"buffer":0,
			"byteLength":128688,
			"byteOffset":0,
			"target":34962
		},
		{
			"buffer":0,
			"byteLength":128688,
			"byteOffset":128688,
			"target":34962
		},
		{
			"buffer":0,
			"byteLength":85792,
			"byteOffset":257376,
			"target":34962
		},
		{
			"buffer":0,
			"byteLength":36192,
			"byteOffset":343168,
			"target":34963
		},
		{
			"buffer":0,
			"byteLength":135564,
			"byteOffset":379360,
			"target":34962
		},
		{
			"buffer":0,
			"byteLength":135564,
			"byteOffset":514924,
			"target":34962
		},
		{
			"buffer":0,
			"byteLength":90376,
			"byteOffset":650488,
			"target":34962
		},
		{
			"buffer":0,
			"byteLength":39240,
			"byteOffset":740864,
			"target":34963
		},
		{
			"buffer":0,
			"byteLength":102660,
			"byteOffset":780104,
			"target":34962
		},
		{
			"buffer":0,
			"byteLength":102660,
			"byteOffset":882764,
			"target":34962
		},
		{
			"buffer":0,
			"byteLength":68440,
			"byteOffset":985424,
			"target":34962
		},
		{
			"buffer":0,
			"byteLength":28950,
			"byteOffset":1053864,
			"target":34963
		},
		{
			"buffer":0,
			"byteLength":7944,
			"byteOffset":1082816,
			"target":34962
		},
		{
			"buffer":0,
			"byteLength":7944,
			"byteOffset":1090760,
			"target":34962
		},
		{
			"buffer":0,
			"byteLength":5296,
			"byteOffset":1098704,
			"target":34962
		},
		{
			"buffer":0,
			"byteLength":1974,
			"byteOffset":1104000,
			"target":34963
		},
		{
			"buffer":0,
			"byteLength":1056,
			"byteOffset":1105976,
			"target":34962
		},
		{
			"buffer":0,
			"byteLength":1056,
			"byteOffset":1107032,
			"target":34962
		},
		{
			"buffer":0,
			"byteLength":704,
			"byteOffset":1108088,
			"target":34962
		},
		{
			"buffer":0,
			"byteLength":336,
			"byteOffset":1108792,
			"target":34963
		},
		{
			"buffer":0,
			"byteLength":8064,
			"byteOffset":1109128,
			"target":34962
		},
		{
			"buffer":0,
			"byteLength":8064,
			"byteOffset":1117192,
			"target":34962
		},
		{
			"buffer":0,
			"byteLength":5376,
			"byteOffset":1125256,
			"target":34962
		},
		{
			"buffer":0,
			"byteLength":3696,
			"byteOffset":1130632,
			"target":34963
		},
		{
			"buffer":0,
			"byteLength":2388,
			"byteOffset":1134328,
			"target":34962
		},
		{
			"buffer":0,
			"byteLength":2388,
			"byteOffset":1136716,
			"target":34962
		},
		{
			"buffer":0,
			"byteLength":1592,
			"byteOffset":1139104,
			"target":34962
		},
		{
			"buffer":0,
			"byteLength":924,
			"byteOffset":1140696,
			"target":34963
		},
		{
			"buffer":0,
			"byteLength":30240,
			"byteOffset":1141620,
			"target":34962
		},
		{
			"buffer":0,
			"byteLength":30240,
			"byteOffset":1171860,
			"target":34962
		},
		{
			"buffer":0,
			"byteLength":20160,
			"byteOffset":1202100,
			"target":34962
		},
		{
			"buffer":0,
			"byteLength":8040,
			"byteOffset":1222260,
			"target":34963
		},
		{
			"buffer":0,
			"byteLength":8676,
			"byteOffset":1230300,
			"target":34962
		},
		{
			"buffer":0,
			"byteLength":8676,
			"byteOffset":1238976,
			"target":34962
		},
		{
			"buffer":0,
			"byteLength":5784,
			"byteOffset":1247652,
			"target":34962
		},
		{
			"buffer":0,
			"byteLength":3174,
			"byteOffset":1253436,
			"target":34963
		},
		{
			"buffer":0,
			"byteLength":119496,
			"byteOffset":1256612,
			"target":34962
		},
		{
			"buffer":0,
			"byteLength":119496,
			"byteOffset":1376108,
			"target":34962
		},
		{
			"buffer":0,
			"byteLength":79664,
			"byteOffset":1495604,
			"target":34962
		},
		{
			"buffer":0,
			"byteLength":38160,
			"byteOffset":1575268,
			"target":34963
		},
		{
			"buffer":0,
			"byteLength":87936,
			"byteOffset":1613428,
			"target":34962
		},
		{
			"buffer":0,
			"byteLength":87936,
			"byteOffset":1701364,
			"target":34962
		},
		{
			"buffer":0,
			"byteLength":58624,
			"byteOffset":1789300,
			"target":34962
		},
		{
			"buffer":0,
			"byteLength":27048,
			"byteOffset":1847924,
			"target":34963
		},
		{
			"buffer":0,
			"byteLength":17064,
			"byteOffset":1874972,
			"target":34962
		},
		{
			"buffer":0,
			"byteLength":17064,
			"byteOffset":1892036,
			"target":34962
		},
		{
			"buffer":0,
			"byteLength":11376,
			"byteOffset":1909100,
			"target":34962
		},
		{
			"buffer":0,
			"byteLength":4428,
			"byteOffset":1920476,
			"target":34963
		},
		{
			"buffer":0,
			"byteLength":117360,
			"byteOffset":1924904,
			"target":34962
		},
		{
			"buffer":0,
			"byteLength":117360,
			"byteOffset":2042264,
			"target":34962
		},
		{
			"buffer":0,
			"byteLength":78240,
			"byteOffset":2159624,
			"target":34962
		},
		{
			"buffer":0,
			"byteLength":31542,
			"byteOffset":2237864,
			"target":34963
		},
		{
			"buffer":0,
			"byteLength":110880,
			"byteOffset":2269408,
			"target":34962
		},
		{
			"buffer":0,
			"byteLength":110880,
			"byteOffset":2380288,
			"target":34962
		},
		{
			"buffer":0,
			"byteLength":73920,
			"byteOffset":2491168,
			"target":34962
		},
		{
			"buffer":0,
			"byteLength":32976,
			"byteOffset":2565088,
			"target":34963
		}
	],
	"samplers":[
		{
			"magFilter":9729,
			"minFilter":9987
		}
	],
	"buffers":[
		{
			"byteLength":2598064,
			"uri":"untitled.bin"
		}
	]
}
