{
	"asset":{
		"generator":"Khronos glTF Blender I/O v4.1.63",
		"version":"2.0"
	},
	"scene":0,
	"scenes":[
		{
			"name":"Scene",
			"nodes":[
				2
			]
		}
	],
	"nodes":[
		{
			"mesh":0,
			"name":"Object_18",
			"translation":[
				0.14028827846050262,
				-0.22649452090263367,
				0.0139860138297081
			]
		},
		{
			"children":[
				0
			],
			"name":"A380.obj.cleaner.materialmerger.gles"
		},
		{
			"children":[
				1
			],
			"name":"Sketchfab_model",
			"rotation":[
				-0.70710688829422,
				0,
				0,
				0.7071066498756409
			],
			"scale":[
				0.3175413906574249,
				0.3175414204597473,
				0.3175414204597473
			]
		}
	],
	"materials":[
		{
			"doubleSided":true,
			"name":"A380A380elevator_lSG1",
			"pbrMetallicRoughness":{
				"baseColorTexture":{
					"index":0
				},
				"metallicFactor":0,
				"roughnessFactor":0.19570587575435638
			}
		}
	],
	"meshes":[
		{
			"name":"Object_16",
			"primitives":[
				{
					"attributes":{
						"POSITION":0,
						"NORMAL":1,
						"TEXCOORD_0":2
					},
					"indices":3,
					"material":0
				}
			]
		}
	],
	"textures":[
		{
			"sampler":0,
			"source":0
		}
	],
	"images":[
		{
			"mimeType":"image/png",
			"name":"A380A380elevator_lSG1_baseColor",
			"uri":"A380A380elevator_lSG1_baseColor.png"
		}
	],
	"accessors":[
		{
			"bufferView":0,
			"componentType":5126,
			"count":3019,
			"max":[
				15.156999588012695,
				-24.2012996673584,
				23.699399948120117
			],
			"min":[
				-15.156100273132324,
				-43.929901123046875,
				6.846169948577881
			],
			"type":"VEC3"
		},
		{
			"bufferView":1,
			"componentType":5126,
			"count":3019,
			"type":"VEC3"
		},
		{
			"bufferView":2,
			"componentType":5126,
			"count":3019,
			"type":"VEC2"
		},
		{
			"bufferView":3,
			"componentType":5123,
			"count":3315,
			"type":"SCALAR"
		}
	],
	"bufferViews":[
		{
			"buffer":0,
			"byteLength":36228,
			"byteOffset":0,
			"target":34962
		},
		{
			"buffer":0,
			"byteLength":36228,
			"byteOffset":36228,
			"target":34962
		},
		{
			"buffer":0,
			"byteLength":24152,
			"byteOffset":72456,
			"target":34962
		},
		{
			"buffer":0,
			"byteLength":6630,
			"byteOffset":96608,
			"target":34963
		}
	],
	"samplers":[
		{
			"magFilter":9729,
			"minFilter":9987
		}
	],
	"buffers":[
		{
			"byteLength":103240,
			"uri":"untitled.bin"
		}
	]
}
