{
	"asset":{
		"generator":"Khronos glTF Blender I/O v4.1.63",
		"version":"2.0"
	},
	"extensionsUsed":[
		"KHR_materials_unlit"
	],
	"scene":0,
	"scenes":[
		{
			"name":"Scene",
			"nodes":[
				4
			]
		}
	],
	"nodes":[
		{
			"mesh":0,
			"name":"Object_2",
			"translation":[
				0,
				-2.294778823852539e-06,
				0
			]
		},
		{
			"mesh":1,
			"name":"Object_3",
			"translation":[
				0,
				-2.294778823852539e-06,
				0
			]
		},
		{
			"mesh":2,
			"name":"Object_4",
			"translation":[
				0,
				-2.294778823852539e-06,
				0
			]
		},
		{
			"children":[
				0,
				1,
				2
			],
			"name":"CC130.obj.cleaner.materialmerger.gles",
			"translation":[
				0,
				-2.294778823852539e-06,
				0
			]
		},
		{
			"children":[
				3
			],
			"name":"Sketchfab_model",
			"rotation":[
				-0.8475084900856018,
				0.054079681634902954,
				0.013411992229521275,
				0.5278492569923401
			],
			"scale":[
				0.10000000149011612,
				0.10000000149011612,
				0.10000000149011612
			],
			"translation":[
				-0.3186216652393341,
				-0.0930759608745575,
				2.3499858379364014
			]
		}
	],
	"materials":[
		{
			"extensions":{
				"KHR_materials_unlit":{}
			},
			"name":"CC130",
			"pbrMetallicRoughness":{
				"baseColorTexture":{
					"index":0
				},
				"metallicFactor":0,
				"roughnessFactor":0.9
			}
		}
	],
	"meshes":[
		{
			"name":"Object_0.001",
			"primitives":[
				{
					"attributes":{
						"POSITION":0,
						"NORMAL":1,
						"TEXCOORD_0":2
					},
					"indices":3,
					"material":0
				}
			]
		},
		{
			"name":"Object_1.001",
			"primitives":[
				{
					"attributes":{
						"POSITION":4,
						"NORMAL":5,
						"TEXCOORD_0":6
					},
					"indices":7,
					"material":0
				}
			]
		},
		{
			"name":"Object_2.001",
			"primitives":[
				{
					"attributes":{
						"POSITION":8,
						"NORMAL":9,
						"TEXCOORD_0":10
					},
					"indices":11,
					"material":0
				}
			]
		}
	],
	"textures":[
		{
			"sampler":0,
			"source":0
		}
	],
	"images":[
		{
			"mimeType":"image/jpeg",
			"name":"CC130_baseColor",
			"uri":"CC130_baseColor.jpg"
		}
	],
	"accessors":[
		{
			"bufferView":0,
			"componentType":5126,
			"count":65787,
			"max":[
				62.95083236694336,
				14.139184951782227,
				17.908390045166016
			],
			"min":[
				-41.1087760925293,
				-20.9151554107666,
				-12.673624038696289
			],
			"type":"VEC3"
		},
		{
			"bufferView":1,
			"componentType":5126,
			"count":65787,
			"type":"VEC3"
		},
		{
			"bufferView":2,
			"componentType":5126,
			"count":65787,
			"type":"VEC2"
		},
		{
			"bufferView":3,
			"componentType":5125,
			"count":299736,
			"type":"SCALAR"
		},
		{
			"bufferView":4,
			"componentType":5126,
			"count":65991,
			"max":[
				63.443931579589844,
				15.28265380859375,
				17.908390045166016
			],
			"min":[
				-41.1087760925293,
				-20.445194244384766,
				-12.673624038696289
			],
			"type":"VEC3"
		},
		{
			"bufferView":5,
			"componentType":5126,
			"count":65991,
			"type":"VEC3"
		},
		{
			"bufferView":6,
			"componentType":5126,
			"count":65991,
			"type":"VEC2"
		},
		{
			"bufferView":7,
			"componentType":5125,
			"count":274146,
			"type":"SCALAR"
		},
		{
			"bufferView":8,
			"componentType":5126,
			"count":12156,
			"max":[
				59.91045379638672,
				14.087173461914062,
				12.272856712341309
			],
			"min":[
				-39.6185188293457,
				-20.45594596862793,
				-4.079390048980713
			],
			"type":"VEC3"
		},
		{
			"bufferView":9,
			"componentType":5126,
			"count":12156,
			"type":"VEC3"
		},
		{
			"bufferView":10,
			"componentType":5126,
			"count":12156,
			"type":"VEC2"
		},
		{
			"bufferView":11,
			"componentType":5123,
			"count":30831,
			"type":"SCALAR"
		}
	],
	"bufferViews":[
		{
			"buffer":0,
			"byteLength":789444,
			"byteOffset":0,
			"target":34962
		},
		{
			"buffer":0,
			"byteLength":789444,
			"byteOffset":789444,
			"target":34962
		},
		{
			"buffer":0,
			"byteLength":526296,
			"byteOffset":1578888,
			"target":34962
		},
		{
			"buffer":0,
			"byteLength":1198944,
			"byteOffset":2105184,
			"target":34963
		},
		{
			"buffer":0,
			"byteLength":791892,
			"byteOffset":3304128,
			"target":34962
		},
		{
			"buffer":0,
			"byteLength":791892,
			"byteOffset":4096020,
			"target":34962
		},
		{
			"buffer":0,
			"byteLength":527928,
			"byteOffset":4887912,
			"target":34962
		},
		{
			"buffer":0,
			"byteLength":1096584,
			"byteOffset":5415840,
			"target":34963
		},
		{
			"buffer":0,
			"byteLength":145872,
			"byteOffset":6512424,
			"target":34962
		},
		{
			"buffer":0,
			"byteLength":145872,
			"byteOffset":6658296,
			"target":34962
		},
		{
			"buffer":0,
			"byteLength":97248,
			"byteOffset":6804168,
			"target":34962
		},
		{
			"buffer":0,
			"byteLength":61662,
			"byteOffset":6901416,
			"target":34963
		}
	],
	"samplers":[
		{
			"magFilter":9729,
			"minFilter":9987
		}
	],
	"buffers":[
		{
			"byteLength":6963080,
			"uri":"untitled.bin"
		}
	]
}
