{
	"asset":{
		"generator":"Khronos glTF Blender I/O v4.1.63",
		"version":"2.0"
	},
	"scene":0,
	"scenes":[
		{
			"name":"Scene",
			"nodes":[
				5
			]
		}
	],
	"nodes":[
		{
			"mesh":0,
			"name":"Object_13"
		},
		{
			"mesh":1,
			"name":"Object_14"
		},
		{
			"mesh":2,
			"name":"Object_29"
		},
		{
			"mesh":3,
			"name":"Object_30"
		},
		{
			"children":[
				0,
				1,
				2,
				3
			],
			"name":"A380.obj.cleaner.materialmerger.gles"
		},
		{
			"children":[
				4
			],
			"name":"Sketchfab_model",
			"rotation":[
				-0.70710688829422,
				0,
				0,
				0.7071066498756409
			],
			"scale":[
				0.3175413906574249,
				0.3175414204597473,
				0.3175414204597473
			]
		}
	],
	"materials":[
		{
			"doubleSided":true,
			"name":"A380A380aileron_lSG1",
			"pbrMetallicRoughness":{
				"baseColorTexture":{
					"index":0
				},
				"metallicFactor":0,
				"roughnessFactor":0.14098422229290009
			}
		},
		{
			"doubleSided":true,
			"name":"A380A380wingsSG3",
			"pbrMetallicRoughness":{
				"baseColorTexture":{
					"index":1
				},
				"metallicFactor":0,
				"roughnessFactor":0.18962569534778595
			}
		}
	],
	"meshes":[
		{
			"name":"Object_11.001",
			"primitives":[
				{
					"attributes":{
						"POSITION":0,
						"NORMAL":1,
						"TEXCOORD_0":2
					},
					"indices":3,
					"material":0
				}
			]
		},
		{
			"name":"Object_12.001",
			"primitives":[
				{
					"attributes":{
						"POSITION":4,
						"NORMAL":5,
						"TEXCOORD_0":6
					},
					"indices":7,
					"material":0
				}
			]
		},
		{
			"name":"Object_27",
			"primitives":[
				{
					"attributes":{
						"POSITION":8,
						"NORMAL":9,
						"TEXCOORD_0":10
					},
					"indices":11,
					"material":1
				}
			]
		},
		{
			"name":"Object_28",
			"primitives":[
				{
					"attributes":{
						"POSITION":12,
						"NORMAL":13,
						"TEXCOORD_0":14
					},
					"indices":15,
					"material":1
				}
			]
		}
	],
	"textures":[
		{
			"sampler":0,
			"source":0
		},
		{
			"sampler":0,
			"source":1
		}
	],
	"images":[
		{
			"mimeType":"image/png",
			"name":"A380A380aileron_lSG1_baseColor",
			"uri":"A380A380aileron_lSG1_baseColor.png"
		},
		{
			"mimeType":"image/png",
			"name":"A380A380wingsSG3_baseColor",
			"uri":"A380A380wingsSG3_baseColor.png"
		}
	],
	"accessors":[
		{
			"bufferView":0,
			"componentType":5126,
			"count":1531,
			"max":[
				34.93000030517578,
				-3.8649699687957764,
				5.791920185089111
			],
			"min":[
				-34.93000030517578,
				-20.36090087890625,
				2.712480068206787
			],
			"type":"VEC3"
		},
		{
			"bufferView":1,
			"componentType":5126,
			"count":1531,
			"type":"VEC3"
		},
		{
			"bufferView":2,
			"componentType":5126,
			"count":1531,
			"type":"VEC2"
		},
		{
			"bufferView":3,
			"componentType":5123,
			"count":1650,
			"type":"SCALAR"
		},
		{
			"bufferView":4,
			"componentType":5126,
			"count":14150,
			"max":[
				39.902801513671875,
				10.351900100708008,
				6.832159996032715
			],
			"min":[
				3.2216498851776123,
				-23.46929931640625,
				2.1163699626922607
			],
			"type":"VEC3"
		},
		{
			"bufferView":5,
			"componentType":5126,
			"count":14150,
			"type":"VEC3"
		},
		{
			"bufferView":6,
			"componentType":5126,
			"count":14150,
			"type":"VEC2"
		},
		{
			"bufferView":7,
			"componentType":5123,
			"count":14649,
			"type":"SCALAR"
		},
		{
			"bufferView":8,
			"componentType":5126,
			"count":297,
			"max":[
				-4.290420055389404,
				-3.864759922027588,
				3.300800085067749
			],
			"min":[
				-6.602350234985352,
				-5.689640045166016,
				2.7127599716186523
			],
			"type":"VEC3"
		},
		{
			"bufferView":9,
			"componentType":5126,
			"count":297,
			"type":"VEC3"
		},
		{
			"bufferView":10,
			"componentType":5126,
			"count":297,
			"type":"VEC2"
		},
		{
			"bufferView":11,
			"componentType":5123,
			"count":366,
			"type":"SCALAR"
		},
		{
			"bufferView":12,
			"componentType":5126,
			"count":14074,
			"max":[
				26.322999954223633,
				10.342900276184082,
				6.834479808807373
			],
			"min":[
				-39.90039825439453,
				-23.46929931640625,
				2.1163699626922607
			],
			"type":"VEC3"
		},
		{
			"bufferView":13,
			"componentType":5126,
			"count":14074,
			"type":"VEC3"
		},
		{
			"bufferView":14,
			"componentType":5126,
			"count":14074,
			"type":"VEC2"
		},
		{
			"bufferView":15,
			"componentType":5123,
			"count":14715,
			"type":"SCALAR"
		}
	],
	"bufferViews":[
		{
			"buffer":0,
			"byteLength":18372,
			"byteOffset":0,
			"target":34962
		},
		{
			"buffer":0,
			"byteLength":18372,
			"byteOffset":18372,
			"target":34962
		},
		{
			"buffer":0,
			"byteLength":12248,
			"byteOffset":36744,
			"target":34962
		},
		{
			"buffer":0,
			"byteLength":3300,
			"byteOffset":48992,
			"target":34963
		},
		{
			"buffer":0,
			"byteLength":169800,
			"byteOffset":52292,
			"target":34962
		},
		{
			"buffer":0,
			"byteLength":169800,
			"byteOffset":222092,
			"target":34962
		},
		{
			"buffer":0,
			"byteLength":113200,
			"byteOffset":391892,
			"target":34962
		},
		{
			"buffer":0,
			"byteLength":29298,
			"byteOffset":505092,
			"target":34963
		},
		{
			"buffer":0,
			"byteLength":3564,
			"byteOffset":534392,
			"target":34962
		},
		{
			"buffer":0,
			"byteLength":3564,
			"byteOffset":537956,
			"target":34962
		},
		{
			"buffer":0,
			"byteLength":2376,
			"byteOffset":541520,
			"target":34962
		},
		{
			"buffer":0,
			"byteLength":732,
			"byteOffset":543896,
			"target":34963
		},
		{
			"buffer":0,
			"byteLength":168888,
			"byteOffset":544628,
			"target":34962
		},
		{
			"buffer":0,
			"byteLength":168888,
			"byteOffset":713516,
			"target":34962
		},
		{
			"buffer":0,
			"byteLength":112592,
			"byteOffset":882404,
			"target":34962
		},
		{
			"buffer":0,
			"byteLength":29430,
			"byteOffset":994996,
			"target":34963
		}
	],
	"samplers":[
		{
			"magFilter":9729,
			"minFilter":9987
		}
	],
	"buffers":[
		{
			"byteLength":1024428,
			"uri":"untitled.bin"
		}
	]
}
